<svg width="248" height="190" viewBox="0 0 248 190" fill="none" xmlns="http://www.w3.org/2000/svg">
<path class="highlight" d="M31.5393 36.3771C35.9387 36.3771 39.9784 35.6346 44.2462 34.8205C62.6403 31.3121 80.9664 27.8933 99.7399 25.5896C126.99 22.2456 154.381 21.843 181.938 22.042C186.281 22.0733 187.139 22.5923 182.732 24.7208C167.11 32.2669 149.65 38.001 133.195 44.4859C110.975 53.2431 88.9602 62.2678 66.6819 70.948C53.4872 76.0891 40.2862 81.1889 27.9158 87.3466C27.8048 87.4019 20.1832 90.8166 22.4062 91.1114C24.4374 91.3807 28.2487 90.9814 29.8516 90.7494C40.7091 89.178 51.3244 86.3422 61.7183 83.6542C98.1226 74.2394 133.542 62.8747 170.422 54.4409C170.532 54.4158 184.246 52.0928 183.526 52.8119C182.292 54.045 180.324 54.7801 178.662 55.7079C169.924 60.5848 161.062 65.3416 152.255 70.1516C134.673 79.7548 117.524 89.7667 99.9384 99.365C90.5719 104.477 80.8466 109.326 71.8441 114.786C65.1369 118.854 76.4388 116 78.9422 115.51C101.49 111.096 123.315 104.878 145.306 99.2202C164.404 94.307 183.606 89.7264 203.083 85.6814C210.394 84.1632 218.202 82.0826 225.817 81.4822C226.67 81.4149 224.311 82.0859 223.533 82.351C214.733 85.3516 206.119 88.6073 197.524 91.9078C172.336 101.58 147.377 111.577 123.069 122.388C120.657 123.461 54.3853 154.191 56.2583 155.728C58.6041 157.653 82.5127 150.455 84.5511 149.972C106.583 144.758 128.591 139.489 150.617 134.262C164.353 131.002 178.035 127.44 191.965 124.633C193.015 124.421 205.369 121.96 202.041 123.438C178.336 133.961 152.977 143.051 131.011 155.511C126.512 158.063 114.631 163.044 114.631 168" stroke="#fdf2f8" stroke-width="43" stroke-linecap="round"/>
</svg>
