<svg width="89" height="32" viewBox="0 0 89 32" fill="none" xmlns="http://www.w3.org/2000/svg">
<g clip-path="url(#clip0_604_2)">
<path d="M0.5 0.5H78.6846C84.1054 0.5 88.5 5.40849 88.5 11.4634V31.5H10.3154C4.8945 31.5 0.5 26.5915 0.5 20.5366V0.5Z" fill="white"/>
<path fill-rule="evenodd" clip-rule="evenodd" d="M0 0H78.6846C84.4321 0 89 5.18579 89 11.4634V32H10.3154C4.56778 32 0 26.8142 0 20.5366V0ZM1 1V20.5366C1 26.3688 5.22121 31 10.3154 31H88V11.4634C88 5.63119 83.7787 1 78.6846 1H1Z" fill="black"/>
<path d="M12.168 18.0179C14.4963 19.9034 17.8262 19.9034 20.1546 18.0179L19.2543 16.9062C17.4509 18.3666 14.8717 18.3666 13.0683 16.9062L12.168 18.0179Z" fill="black"/>
<path d="M13.1387 15.57V13.6375H14.5692V15.57H13.1387Z" fill="black"/>
<path d="M17.5781 13.6375V15.57H19.0086V13.6375H17.5781Z" fill="black"/>
<path fill-rule="evenodd" clip-rule="evenodd" d="M23.6144 16.2328C23.6144 20.4993 20.1558 23.958 15.8893 23.958C11.6227 23.958 8.16406 20.4993 8.16406 16.2328C8.16406 11.9662 11.6227 8.50757 15.8893 8.50757C20.1558 8.50757 23.6144 11.9662 23.6144 16.2328ZM22.1839 16.2328C22.1839 19.7092 19.3657 22.5274 15.8893 22.5274C12.4128 22.5274 9.59457 19.7092 9.59457 16.2328C9.59457 12.7563 12.4128 9.93807 15.8893 9.93807C19.3657 9.93807 22.1839 12.7563 22.1839 16.2328Z" fill="black"/>
<path d="M35.5416 16.6884C36.2066 16.6884 36.7497 16.8652 37.1707 17.219C37.5957 17.5689 37.8082 18.1514 37.8082 18.9663V23.3434H36.0846V19.3898C36.0846 19.0478 36.0394 18.7854 35.9489 18.6026C35.7836 18.2686 35.4689 18.1017 35.0045 18.1017C34.4339 18.1017 34.0424 18.3462 33.8299 18.8352C33.7197 19.0936 33.6646 19.4235 33.6646 19.8251V23.3434H31.9883V16.8553H33.6115V17.8035C33.8279 17.4695 34.0326 17.229 34.2254 17.0819C34.5717 16.8195 35.0104 16.6884 35.5416 16.6884Z" fill="black"/>
<path d="M41.7701 22.1448C42.2619 22.1448 42.6397 21.9678 42.9034 21.614C43.167 21.2602 43.2989 20.7573 43.2989 20.1053C43.2989 19.4533 43.167 18.9524 42.9034 18.6026C42.6397 18.2487 42.2619 18.0718 41.7701 18.0718C41.2782 18.0718 40.8985 18.2487 40.6309 18.6026C40.3673 18.9524 40.2354 19.4533 40.2354 20.1053C40.2354 20.7573 40.3673 21.2602 40.6309 21.614C40.8985 21.9678 41.2782 22.1448 41.7701 22.1448ZM45.0637 20.1053C45.0637 21.0594 44.7922 21.8764 44.2492 22.5562C43.7061 23.2321 42.8817 23.5701 41.776 23.5701C40.6702 23.5701 39.8458 23.2321 39.3028 22.5562C38.7597 21.8764 38.4883 21.0594 38.4883 20.1053C38.4883 19.1671 38.7597 18.3541 39.3028 17.6663C39.8458 16.9785 40.6702 16.6346 41.776 16.6346C42.8817 16.6346 43.7061 16.9785 44.2492 17.6663C44.7922 18.3541 45.0637 19.1671 45.0637 20.1053Z" fill="black"/>
<path d="M45.1289 18.1135V16.903H46.0261V15.0901H47.6906V16.903H48.7354V18.1135H47.6906V21.5484C47.6906 21.8148 47.724 21.9817 47.7909 22.0493C47.8578 22.1129 48.0625 22.1447 48.4048 22.1447C48.456 22.1447 48.5091 22.1447 48.5642 22.1447C48.6232 22.1408 48.6803 22.1367 48.7354 22.1328V23.403L47.9385 23.4328C47.1436 23.4606 46.6006 23.3215 46.3094 23.0154C46.1206 22.8206 46.0261 22.5204 46.0261 22.1149V18.1135H45.1289Z" fill="black"/>
<path d="M55.2328 16.7001C56.0789 16.7001 56.74 17.0083 57.2161 17.6245C57.6962 18.2407 57.9363 19.0358 57.9363 20.0098C57.9363 21.0196 57.7001 21.8565 57.228 22.5204C56.7557 23.1843 56.0966 23.5163 55.2506 23.5163C54.7194 23.5163 54.2924 23.409 53.9698 23.1943C53.7769 23.067 53.5684 22.8444 53.3441 22.5264V23.3433H51.6973V14.5653H53.3736V17.6901C53.586 17.388 53.8202 17.1573 54.076 16.9983C54.379 16.7996 54.7646 16.7001 55.2328 16.7001ZM54.802 22.1149C55.2349 22.1149 55.5713 21.938 55.8113 21.5841C56.0514 21.2303 56.1714 20.7652 56.1714 20.1887C56.1714 19.7275 56.1124 19.3459 55.9943 19.0438C55.77 18.4713 55.3569 18.1851 54.7548 18.1851C54.1448 18.1851 53.7258 18.4653 53.4975 19.0259C53.3795 19.324 53.3204 19.7097 53.3204 20.1828C53.3204 20.7393 53.4424 21.2005 53.6864 21.5663C53.9304 21.932 54.3023 22.1149 54.802 22.1149Z" fill="black"/>
<path d="M58.9228 24.5898L59.1353 24.6017C59.3005 24.6097 59.458 24.6037 59.6074 24.5838C59.757 24.5639 59.8829 24.5182 59.9852 24.4467C60.0836 24.3791 60.1741 24.2379 60.2568 24.0232C60.3434 23.8086 60.3788 23.6774 60.363 23.6297L58.002 16.8434H59.8731L61.2779 21.6379L62.606 16.8434H64.3944L62.1869 23.2361C61.7619 24.4686 61.4255 25.2319 61.1775 25.526C60.9297 25.8242 60.4338 25.9733 59.6901 25.9733C59.5406 25.9733 59.4206 25.9713 59.3301 25.9673C59.2395 25.9673 59.1038 25.9613 58.9228 25.9494V24.5898Z" fill="black"/>
<path d="M68.7895 20.0218H70.9969L69.911 16.563L68.7895 20.0218ZM68.9017 14.5533H70.9559L74.0366 23.3433H72.0656L71.5047 21.5364H68.2996L67.6975 23.3433H65.7969L68.9017 14.5533Z" fill="black"/>
<path d="M77.3936 23.3433H75.5879V14.5533H77.3936V23.3433Z" fill="black"/>
<path d="M74.5156 14.5533H78.3406V16.0485H74.5156V14.5533Z" fill="black"/>
<path d="M74.5156 21.8502H78.3406V23.3454H74.5156V21.8502Z" fill="black"/>
<path d="M31.9716 8.43774L32.6568 11.1051L33.3519 8.43774H34.0238L34.7222 11.0893L35.4507 8.43774H36.0493L35.015 11.8225H34.393L33.6679 9.20256L32.9661 11.8225H32.3441L31.3164 8.43774H31.9716Z" fill="black"/>
<path d="M36.5684 8.43766H37.1371V9.02231C37.1837 8.90859 37.2979 8.77054 37.4797 8.60831C37.6615 8.44399 37.871 8.36182 38.1083 8.36182C38.1194 8.36182 38.1383 8.36287 38.1649 8.36498C38.1915 8.36708 38.2369 8.3713 38.3012 8.37762V8.97811C38.2658 8.9718 38.2324 8.96757 38.2014 8.96548C38.1726 8.96333 38.1405 8.96226 38.105 8.96226C37.8034 8.96226 37.5717 9.05503 37.4098 9.24043C37.248 9.42369 37.167 9.63542 37.167 9.87564V11.8225H36.5684V8.43766Z" fill="black"/>
<path d="M38.752 8.45357H39.3606V11.8226H38.752V8.45357ZM38.752 7.17993H39.3606V7.82465H38.752V7.17993Z" fill="black"/>
<path d="M40.3202 7.4928H40.9255V8.43775H41.4942V8.90236H40.9255V11.1114C40.9255 11.2295 40.9677 11.3085 41.0519 11.3485C41.0984 11.3717 41.1761 11.3832 41.2847 11.3832C41.3135 11.3832 41.3446 11.3832 41.3778 11.3832C41.4111 11.3811 41.4499 11.378 41.4942 11.3737V11.8225C41.4255 11.8415 41.3534 11.8552 41.2781 11.8636C41.2049 11.8721 41.1251 11.8762 41.0386 11.8762C40.7592 11.8762 40.5696 11.8088 40.4699 11.674C40.3701 11.5371 40.3202 11.36 40.3202 11.1431V8.90236H39.8379V8.43775H40.3202V7.4928Z" fill="black"/>
<path d="M42.1463 7.4928H42.7517V8.43775H43.3204V8.90236H42.7517V11.1114C42.7517 11.2295 42.7938 11.3085 42.8781 11.3485C42.9246 11.3717 43.0023 11.3832 43.1109 11.3832C43.1397 11.3832 43.1707 11.3832 43.204 11.3832C43.2372 11.3811 43.2761 11.378 43.3204 11.3737V11.8225C43.2517 11.8415 43.1796 11.8552 43.1042 11.8636C43.0311 11.8721 42.9512 11.8762 42.8648 11.8762C42.5854 11.8762 42.3958 11.8088 42.2961 11.674C42.1962 11.5371 42.1463 11.36 42.1463 11.1431V8.90236H41.6641V8.43775H42.1463V7.4928Z" fill="black"/>
<path d="M45.3392 8.36182C45.592 8.36182 45.837 8.41871 46.0743 8.53247C46.3115 8.64411 46.4923 8.78955 46.6164 8.96864C46.7361 9.13927 46.816 9.33837 46.8559 9.5659C46.8914 9.72181 46.9091 9.97043 46.9091 10.3117H44.2982C44.3093 10.6552 44.3946 10.9312 44.5543 11.1398C44.7139 11.3463 44.9611 11.4495 45.296 11.4495C45.6086 11.4495 45.8581 11.3516 46.0443 11.1556C46.1507 11.0418 46.2262 10.9101 46.2705 10.7605H46.8592C46.8437 10.8848 46.7916 11.0239 46.7029 11.1777C46.6164 11.3294 46.5189 11.4537 46.4102 11.5507C46.2284 11.7192 46.0033 11.8329 45.735 11.892C45.5909 11.9256 45.4279 11.9425 45.2461 11.9425C44.8026 11.9425 44.4268 11.7897 44.1186 11.4843C43.8103 11.1766 43.6562 10.7468 43.6562 10.1949C43.6562 9.65128 43.8115 9.20987 44.1219 8.87063C44.4323 8.53139 44.8381 8.36182 45.3392 8.36182ZM46.2938 9.85986C46.2694 9.61332 46.2129 9.4163 46.1241 9.26885C45.9601 8.99497 45.6862 8.858 45.3027 8.858C45.0277 8.858 44.7971 8.95279 44.6108 9.14242C44.4246 9.32998 44.3259 9.56906 44.3148 9.85986H46.2938Z" fill="black"/>
<path d="M47.5781 8.43766H48.1468V8.91806C48.3154 8.72002 48.4939 8.57775 48.6824 8.49139C48.8709 8.40501 49.0804 8.36182 49.311 8.36182C49.8165 8.36182 50.158 8.52931 50.3353 8.86432C50.433 9.04764 50.4817 9.30996 50.4817 9.65128V11.8225H49.873V9.68917C49.873 9.48267 49.8409 9.31627 49.7766 9.18985C49.6702 8.97912 49.4772 8.87379 49.1979 8.87379C49.056 8.87379 48.9396 8.88749 48.8486 8.9149C48.6846 8.96125 48.5404 9.05395 48.4163 9.19301C48.3165 9.30465 48.2511 9.42053 48.2201 9.54064C48.1912 9.6586 48.1768 9.82822 48.1768 10.0494V11.8225H47.5781V8.43766Z" fill="black"/>
<path d="M53.084 7.16406H53.6661V8.84856C53.7969 8.68633 53.9532 8.56306 54.135 8.47878C54.3169 8.39239 54.5142 8.3492 54.727 8.3492C55.1705 8.3492 55.5297 8.49458 55.8047 8.78534C56.0818 9.074 56.2204 9.50063 56.2204 10.0653C56.2204 10.6004 56.084 11.045 55.8113 11.3989C55.5386 11.753 55.1605 11.9299 54.6772 11.9299C54.4067 11.9299 54.1783 11.8678 53.992 11.7434C53.8812 11.6697 53.7625 11.5517 53.6361 11.3895V11.8225H53.084V7.16406ZM54.6406 11.4274C54.9643 11.4274 55.206 11.3052 55.3657 11.0608C55.5275 10.8164 55.6084 10.494 55.6084 10.0937C55.6084 9.73769 55.5275 9.44272 55.3657 9.20882C55.206 8.97498 54.9699 8.85803 54.6572 8.85803C54.3845 8.85803 54.145 8.95389 53.9388 9.14561C53.7348 9.33733 53.6328 9.65339 53.6328 10.0937C53.6328 10.4119 53.6749 10.67 53.7592 10.8681C53.9166 11.2409 54.2105 11.4274 54.6406 11.4274Z" fill="black"/>
<path d="M59.0786 8.43774H59.7405C59.6563 8.65474 59.4689 9.14989 59.1784 9.92315C58.9611 10.5046 58.7793 10.9787 58.6329 11.3453C58.287 12.2091 58.0431 12.7359 57.9012 12.9255C57.7593 13.1151 57.5154 13.2099 57.1695 13.2099C57.0853 13.2099 57.0198 13.2068 56.9733 13.2004C56.9289 13.1941 56.8735 13.1825 56.807 13.1656V12.6474C56.9112 12.6747 56.9866 12.6916 57.0331 12.6979C57.0797 12.7043 57.1207 12.7074 57.1562 12.7074C57.267 12.7074 57.348 12.6895 57.399 12.6537C57.4522 12.62 57.4966 12.5779 57.532 12.5273C57.5431 12.5104 57.583 12.424 57.6518 12.2681C57.7205 12.1122 57.7704 11.9963 57.8014 11.9205L56.4844 8.43774H57.1628L58.1174 11.1936L59.0786 8.43774Z" fill="black"/>
<path d="M62.0195 7.16406H62.6182V8.89592C62.7601 8.72529 62.8876 8.60518 63.0007 8.53565C63.1936 8.41557 63.4342 8.35552 63.7224 8.35552C64.2391 8.35552 64.5894 8.52726 64.7735 8.87066C64.8732 9.05821 64.9231 9.31838 64.9231 9.6513V11.8225H64.3078V9.68919C64.3078 9.44058 64.2745 9.25833 64.208 9.14245C64.0994 8.95705 63.8954 8.86434 63.5961 8.86434C63.3477 8.86434 63.1226 8.94549 62.9209 9.10772C62.7191 9.26995 62.6182 9.57647 62.6182 10.0274V11.8225H62.0195V7.16406Z" fill="black"/>
<path d="M66.3405 8.43774V10.6848C66.3405 10.8576 66.3693 10.9987 66.4269 11.1083C66.5333 11.3105 66.7318 11.4117 67.0223 11.4117C67.4391 11.4117 67.723 11.2347 67.8738 10.8807C67.9558 10.6911 67.9968 10.4309 67.9968 10.1001V8.43774H68.5955V11.8225H68.0301L68.0367 11.3232C67.9591 11.4517 67.8627 11.5602 67.7473 11.6487C67.519 11.8257 67.2418 11.9142 66.9158 11.9142C66.4081 11.9142 66.0622 11.753 65.8782 11.4306C65.7784 11.2579 65.7285 11.0272 65.7285 10.7385V8.43774H66.3405Z" fill="black"/>
<path d="M69.4648 8.43766H70.0569V8.91806C70.1988 8.7516 70.3272 8.63048 70.4428 8.55457C70.6403 8.42608 70.864 8.36182 71.1145 8.36182C71.3987 8.36182 71.6271 8.42819 71.7997 8.56095C71.8971 8.63679 71.9858 8.74844 72.0657 8.89589C72.1988 8.71472 72.3553 8.58097 72.5346 8.49456C72.7147 8.40607 72.9162 8.36182 73.1399 8.36182C73.6188 8.36182 73.9453 8.52615 74.118 8.85484C74.2113 9.03179 74.2577 9.26992 74.2577 9.56906V11.8225H73.6356V9.47111C73.6356 9.24567 73.5759 9.09083 73.4563 9.00653C73.3387 8.92229 73.1943 8.8801 73.0237 8.8801C72.7886 8.8801 72.5857 8.95494 72.4151 9.10454C72.2464 9.25407 72.1625 9.50376 72.1625 9.85354V11.8225H71.5539V9.61332C71.5539 9.38365 71.525 9.21618 71.4672 9.11085C71.3765 8.95279 71.2066 8.87379 70.958 8.87379C70.7323 8.87379 70.5261 8.95702 70.3393 9.12348C70.1555 9.28994 70.0636 9.59122 70.0636 10.0273V11.8225H69.4648V8.43766Z" fill="black"/>
<path d="M75.5317 10.9218C75.5317 11.0862 75.5948 11.2158 75.7211 11.3105C75.8474 11.4053 75.9972 11.4528 76.1705 11.4528C76.3808 11.4528 76.585 11.4064 76.7825 11.3137C77.115 11.1599 77.2809 10.9081 77.2809 10.5584V10.1001C77.2077 10.1444 77.1136 10.1813 76.9981 10.2107C76.8832 10.2402 76.7697 10.2613 76.6589 10.274L76.2968 10.3182C76.0791 10.3456 75.9166 10.3888 75.8077 10.4477C75.6237 10.5468 75.5317 10.7048 75.5317 10.9218ZM76.982 9.77142C77.119 9.75456 77.211 9.69981 77.2581 9.60711C77.2843 9.55652 77.2977 9.48384 77.2977 9.38905C77.2977 9.19518 77.2245 9.05512 77.078 8.96874C76.9343 8.8802 76.7267 8.836 76.456 8.836C76.1436 8.836 75.9219 8.916 75.791 9.07615C75.7177 9.16462 75.67 9.29635 75.6479 9.47121H75.089C75.1004 9.05405 75.2421 8.76432 75.5149 8.60209C75.7896 8.43777 76.108 8.35559 76.4694 8.35559C76.8886 8.35559 77.2292 8.43145 77.4905 8.58315C77.7498 8.73483 77.8794 8.97082 77.8794 9.29104V11.241C77.8794 11.3 77.8922 11.3474 77.9164 11.3832C77.9433 11.419 77.997 11.437 78.0796 11.437C78.1058 11.437 78.1361 11.4359 78.169 11.4338C78.2026 11.4296 78.2382 11.4243 78.2758 11.418V11.8383C78.1824 11.8636 78.1112 11.8794 78.0628 11.8858C78.0138 11.8921 77.9473 11.8952 77.8633 11.8952C77.6571 11.8952 77.5073 11.8257 77.4139 11.6867C77.3655 11.6129 77.3306 11.5086 77.3111 11.3738C77.1889 11.5254 77.0135 11.6571 76.7851 11.7688C76.5574 11.8805 76.3055 11.9363 76.0308 11.9363C75.7003 11.9363 75.4295 11.8415 75.2186 11.6519C75.0104 11.4601 74.9062 11.221 74.9062 10.9345C74.9062 10.6205 75.0097 10.3772 75.2159 10.2044C75.4215 10.0317 75.6922 9.92525 76.0274 9.88521L76.982 9.77142Z" fill="black"/>
<path d="M78.7949 8.43766H79.3632V8.91806C79.5318 8.72002 79.7105 8.57775 79.8986 8.49139C80.0874 8.40501 80.297 8.36182 80.5274 8.36182C81.0332 8.36182 81.3745 8.52931 81.5518 8.86432C81.6492 9.04764 81.6982 9.30996 81.6982 9.65128V11.8225H81.0896V9.68917C81.0896 9.48267 81.0574 9.31627 80.9929 9.18985C80.8868 8.97912 80.694 8.87379 80.4145 8.87379C80.2728 8.87379 80.1559 8.88749 80.0652 8.9149C79.9013 8.96125 79.7569 9.05395 79.6326 9.19301C79.5332 9.30465 79.4674 9.42053 79.4364 9.54064C79.4076 9.6586 79.3935 9.82822 79.3935 10.0494V11.8225H78.7949V8.43766Z" fill="black"/>
</g>
<defs>
<clipPath id="clip0_604_2">
<rect width="89" height="32" fill="white"/>
</clipPath>
</defs>
</svg>
