<svg width="88" height="31" viewBox="0 0 88 31" fill="none" xmlns="http://www.w3.org/2000/svg">
<rect x="0.5" y="0.5" width="87" height="30" fill="white"/>
<rect x="0.5" y="0.5" width="87" height="30" stroke="#ECECEC"/>
<path d="M51.075 22.25V21H48.575V19.75H52.325V22.25H51.075ZM49.825 23.5V22.25H51.075V23.5H49.825ZM48.575 26V23.5H49.825V24.75H52.325V26H48.575ZM55.225 26V19.75H56.475V26H55.225ZM59.375 26V19.75H60.625V21H61.875V22.25H63.125V23.5H64.375V19.75H65.625V26H64.375V24.75H63.125V23.5H61.875V22.25H60.625V26H59.375ZM71.025 22.25V21H68.525V19.75H72.275V22.25H71.025ZM69.775 23.5V22.25H71.025V23.5H69.775ZM68.525 26V23.5H69.775V24.75H72.275V26H68.525ZM77.675 26V22.25H76.425V21H75.175V19.75H76.425V21H77.675V22.25H78.925V26H77.675ZM80.175 21V19.75H81.425V21H80.175ZM78.925 22.25V21H80.175V22.25H78.925Z" fill="black"/>
</svg>
